<svg width="204" height="44" xmlns="http://www.w3.org/2000/svg" class="h-8">
 <g>
  <title>background</title>
  <rect x="-1" y="-1" width="206" height="46" id="canvas_background" fill="rgba(230,220,219,0)"/>
 </g>

 <g>
  <title>Layer 1</title>
  <path d="m196.302,0l-188.60389,0c-4.25155,0 -7.69811,3.58172 -7.69811,8l0,28c0,4.4183 3.44656,8 7.69811,8l188.60389,0c4.251,0 7.698,-3.5817 7.698,-8l0,-28c0,-4.41828 -3.447,-8 -7.698,-8z" fill="rgba(210,4,4,0.673)" id="svg_1"/>
  <rect x="49" width="1.3" height="44" fill="rgba(103,11,231,0.863)" id="svg_4" y="0"/>
  <text fill="#d8d217" stroke="null" stroke-width="0" stroke-opacity="null" x="60.94501" y="30.22238" id="svg_5" font-size="18" font-family="Helvetica, Arial, sans-serif" text-anchor="start" xml:space="preserve">✨im'farhan✨</text>
 </g>
 <g>
  <title>Layer 2</title>
  <g id="svg_2" stroke="null">
   <path id="path1" transform="translate(8,11.752350807189941) scale(7.499766826629639) " fill="#eafb00" d="m2.08885,1.57997l-0.6525,0.26489l0.65255,0.2638l0.6525,-0.26378l-0.65255,-0.26491zm-1.45828,-1.12058l0,1.73422l1.35417,0.65969l0,-0.51931l-0.86615,-0.35034c-0.0426,-0.01713 -0.07135,-0.06572 -0.07135,-0.12039l0,-1.13772l-0.41667,-0.26613l0,-0.00002zm2.91677,-0.00429l-0.41677,0.25367l0,1.15448c0,0.05468 -0.02875,0.10327 -0.07135,0.12039l-0.86615,0.35034l0,0.51938l1.35427,-0.65975l0,-1.73852l0,0.00001zm-1.5626,-0.1156l-0.72917,0.39501l0,0.91633l0.72917,-0.29604l0,-1.01529l0,-0.00001zm0.20833,-0.00006l0,1.01539l0.72917,0.29604l0,-0.91642l-0.72917,-0.39501zm-0.10411,-0.83785l-1.32789,0.75467l0.39692,0.25346l0.88441,-0.47911l0.00016,-0.00009l0.00408,-0.00221l0.00033,-0.00016l0.00008,-0.00004l0.00132,-0.00078l0.00074,-0.00033l0.00244,-0.00131l0.00408,-0.00164l0.00095,-0.00045l0.00064,-0.00022l0.00073,-0.00032l0.00063,-0.0002l0.00247,-0.001l0.00387,-0.00107l0.00174,-0.00059l0.00112,-0.00023l0.00015,-0.00005l0.00035,-0.00006l0.00254,-0.0007l0.00356,-0.00055l0.00244,-0.00051l0.00178,-0.00015l0.00219,-0.00034l0.00326,-0.00012l0.00294,-0.00025l0.00195,0.00007l0.00196,-0.00007l0.00295,0.00025l0.00324,0.00012l0.00217,0.00034l0.00182,0.00015l0.00253,0.00052l0.00345,0.00054l0.00254,0.00071l0.00024,0.00005l0.00007,0.00001l0.00134,0.00028l0.00195,0.00066l0.00362,0.001l0.00257,0.00104l0.00051,0.00016l0.00047,0.00021l0.00098,0.00033l0.0013,0.00061l0.00366,0.00148l0.00257,0.00138l0.00058,0.00026l0.00094,0.00055l0.0009,0.00043l0.87365,0.47328l0.40725,-0.24799l-1.32322,-0.75202l-0.00002,0zm-0.00377,-0.26677l0.00753,0l0.00006,0l0.00004,0l0.00749,0.00067l0.0016,0.00029l0.00101,0.00011l0.0015,0.00034l0.00333,0.00059l0.00404,0.00109l0.00126,0.00029l0.00058,0.00021l0.00145,0.00039c0.00484,0.00153 0.00958,0.00348 0.01419,0.00583l0.00199,0.00122l0.00169,0.00084l1.56254,0.88803l0.00322,0.00207l0.0009,0.00052l0.00116,0.0008l0.00416,0.00267c0.00303,0.00219 0.00593,0.00455 0.00871,0.00706l0.00336,0.00336l0.00015,0.00013l0.00016,0.00018l0.00429,0.00429c0.00759,0.00839 0.01401,0.01801 0.01917,0.02849l0.00137,0.00312l0.00031,0.00059l0.00043,0.00109l0.00262,0.00596l0.00199,0.00579l0.00062,0.00159l0.00029,0.00108l0.00095,0.00277c0.00228,0.00763 0.00396,0.01552 0.00501,0.02357l0.00021,0.00227l0.00022,0.00139l0.00014,0.00261l0.00053,0.0059l0.00005,0.00516l0.00014,0.00267l0,2.02979c0,0.05176 -0.02604,0.09844 -0.06552,0.11773l-1.56252,0.76117c-0.00318,0.00155 -0.00637,0.0029 -0.00958,0.00405l-0.00534,0.00157l-0.00091,0.00029l-0.00035,0.00008l-0.00306,0.0009l-0.00392,0.00068l-0.00024,0.00005l-0.00033,0.00004l-0.00521,0.0009c-0.00324,0.00037 -0.00647,0.00055 -0.0097,0.00055c-0.00517,0 -0.0103,-0.00047 -0.01536,-0.00139l-0.00392,-0.0009l-0.00033,-0.00006l-0.00031,-0.00009l-0.00296,-0.00068l-0.00576,-0.00186l-0.00065,-0.00019l-0.00022,-0.00009l-0.00076,-0.00024c-0.00243,-0.0009 -0.00484,-0.00191 -0.00721,-0.00302l-0.0005,-0.00026l-0.00086,-0.00036l-1.5625,-0.76118c-0.03948,-0.01941 -0.06542,-0.06597 -0.06542,-0.11786l0,-2.02981l0.00014,-0.00269l0.00005,-0.00499l0.00053,-0.00583l0.00016,-0.00296l0.00025,-0.00153l0.00017,-0.00185c0.00053,-0.00402 0.00121,-0.00801 0.00204,-0.01194l0.00005,-0.0002l0.00008,-0.00047l0.00062,-0.00224l0.00222,-0.00872l0.00084,-0.00245l0.00053,-0.00192l0.001,-0.00252l0.00149,-0.00434l0.0023,-0.00523l0.00095,-0.0024l0.0006,-0.00112l0.00088,-0.00199c0.00344,-0.00698 0.00744,-0.01359 0.01198,-0.0197l0.00174,-0.00213l0.0006,-0.00086l0.00113,-0.00126l0.00372,-0.00454l0.00384,-0.00384l0.00119,-0.00132l0.00087,-0.00074l0.00206,-0.00206l0.0078,-0.00632l0.00037,-0.00031l0.00008,-0.00005l0.00046,-0.00037c0.00303,-0.00219 0.00617,-0.00422 0.00943,-0.00607l1.56096,-0.88713l0.00073,-0.00048c0.00301,-0.00175 0.00609,-0.00331 0.00922,-0.0047l0.00113,-0.00043l0.00038,-0.00019l0.00216,-0.00077l0.00587,-0.00222l0.00119,-0.0003l0.00083,-0.0003l0.00333,-0.00076l0.00445,-0.00113l0.00122,-0.00016l0.00113,-0.00026l0.00371,-0.00039l0.00393,-0.00053l0.00126,-0.00002l0.00126,-0.00013l0.00005,0.00002z" stroke="null"/>
  </g>
 </g>
</svg>